<svg xmlns="http://www.w3.org/2000/svg" viewBox="277 10 70 100" width="70" height="110">
  <g transform="translate(-43.96386,-394.94204)" id="logoGrp">
    <g id="bulbGrp" transform="translate(10.20086,-82.073963)">
      <path class="orng" id="bulbObj" d="m 329.085,559.977 c -0.55,0 -1.1,0 -2.089,0 0,-2.374 0,-4.65 0,-7.025 0.22,-9.202 -3.411,-17.316 -8.8,-24.936 -7.15,-10.391 -7.92,-21.176 -1.43,-31.962 5.06,-8.411 13.089,-13.26 23.98,-13.062 8.58,0.198 15.4,4.156 20.57,10.192 8.689,10.291 9.019,24.837 0.33,35.623 -4.4,5.542 -7.261,11.578 -9.13,18.01 -0.99,3.266 -0.621,6.88 -0.99,10.291 -0.11,0.989 -0.046,1.868 -0.164,2.886 -0.989,0 -2.586,-0.017 -3.577,-0.017 -6.159,0 -12.43,0 -18.7,0 z" />
      <path class="orng threading" d="m 328.344,565.565 c -1.742,0.342 -3.076,1.697 -2.976,2.976 0.101,1.277 1.561,2.006 3.257,1.655 7.037,-1.448 14.165,-2.464 21.332,-2.972 1.754,-0.126 3.275,-1.202 3.372,-2.43 0.097,-1.228 -1.301,-2.175 -3.1,-2.063 -7.348,0.456 -14.661,1.421 -21.885,2.834 z" />
      <path class="orng threading" d="m 328.846,573.812 c -1.661,0.357 -2.927,1.727 -2.826,3.004 0.101,1.277 1.494,1.993 3.109,1.627 7.97,-1.809 12.068,-2.471 20.344,-3.221 1.677,-0.151 3.134,-1.249 3.231,-2.477 0.097,-1.228 -1.239,-2.149 -2.959,-2.013 -8.492,0.68 -12.702,1.315 -20.899,3.08 z" />
      <path class="orng threading" d="m 330.964,581.524 c 1.522,2.737 4.637,4.618 8.242,4.618 4.735,0 8.631,-3.239 9.17,-7.412 z" />
    </g>
  </g>
</svg>
