<svg xmlns="http://www.w3.org/2000/svg" width="666" height="109">
  <g transform="translate(-43.96386,-394.94204)" id="logoGrp">
    <g id="blueGrp">
      <path class="blue" d="m 71.99286,488.67004 -12.966,-51.535 v 55.837 c 0,3.09 -0.689,5.408 -2.069,6.953 -1.379,1.545 -3.209,2.316 -5.49,2.316 -2.207,0 -4.01,-0.764 -5.407,-2.289 -1.398,-1.526 -2.097,-3.854 -2.097,-6.98 v -64.003 c 0,-3.531 0.919,-5.913 2.759,-7.145 1.839,-1.232 4.322,-1.849 7.449,-1.849 h 5.076 c 3.053,0 5.27,0.276 6.648,0.828 1.38,0.552 2.4,1.545 3.063,2.979 0.663,1.434 1.416,3.771 2.262,7.007 l 11.752,44.306 11.752,-44.306 c 0.846,-3.236 1.6,-5.573 2.262,-7.007 0.662,-1.434 1.683,-2.428 3.063,-2.979 1.379,-0.552 3.595,-0.828 6.648,-0.828 h 5.076 c 3.126,0 5.609,0.616 7.449,1.849 1.839,1.232 2.759,3.614 2.759,7.145 v 64.003 c 0,3.09 -0.69,5.408 -2.069,6.953 -1.38,1.545 -3.228,2.316 -5.545,2.316 -2.171,0 -3.955,-0.771 -5.352,-2.316 -1.398,-1.545 -2.097,-3.863 -2.097,-6.953 v -55.837 l -12.966,51.535 c -0.847,3.347 -1.536,5.803 -2.069,7.365 -0.534,1.564 -1.518,2.989 -2.952,4.276 -1.434,1.287 -3.421,1.931 -5.959,1.931 -1.913,0 -3.531,-0.413 -4.855,-1.241 -1.324,-0.827 -2.354,-1.885 -3.09,-3.173 -0.736,-1.287 -1.315,-2.712 -1.738,-4.275 -0.423,-1.563 -0.856,-3.192 -1.297,-4.883 z" />
      <path class="blue" d="m 175.83386,493.74604 c -3.642,2.832 -7.164,4.957 -10.566,6.372 -3.403,1.416 -7.22,2.124 -11.449,2.124 -3.862,0 -7.256,-0.764 -10.18,-2.289 -2.925,-1.526 -5.178,-3.596 -6.759,-6.207 -1.582,-2.612 -2.373,-5.444 -2.373,-8.498 0,-4.119 1.305,-7.632 3.917,-10.538 2.611,-2.905 6.198,-4.855 10.759,-5.849 0.956,-0.221 3.329,-0.717 7.118,-1.49 3.788,-0.771 7.035,-1.479 9.739,-2.124 2.703,-0.643 5.636,-1.425 8.8,-2.345 -0.185,-3.973 -0.984,-6.888 -2.4,-8.745 -1.417,-1.857 -4.351,-2.786 -8.801,-2.786 -3.826,0 -6.704,0.533 -8.635,1.6 -1.932,1.067 -3.587,2.667 -4.966,4.801 -1.38,2.133 -2.354,3.54 -2.925,4.221 -0.571,0.681 -1.793,1.021 -3.669,1.021 -1.692,0 -3.154,-0.542 -4.387,-1.628 -1.232,-1.084 -1.848,-2.474 -1.848,-4.166 0,-2.648 0.938,-5.223 2.814,-7.725 1.876,-2.501 4.8,-4.561 8.773,-6.179 3.973,-1.618 8.919,-2.428 14.842,-2.428 6.621,0 11.826,0.782 15.615,2.345 3.788,1.563 6.464,4.037 8.028,7.421 1.563,3.385 2.345,7.872 2.345,13.463 0,3.531 -0.009,6.529 -0.028,8.993 -0.019,2.465 -0.046,5.206 -0.083,8.222 0,2.833 0.469,5.785 1.407,8.855 0.938,3.072 1.407,5.049 1.407,5.932 0,1.545 -0.727,2.952 -2.18,4.221 -1.453,1.27 -3.099,1.903 -4.938,1.903 -1.545,0 -3.072,-0.727 -4.58,-2.179 -1.506,-1.454 -3.106,-3.56 -4.797,-6.318 z m -0.993,-21.795 c -2.207,0.81 -5.417,1.665 -9.628,2.565 -4.212,0.902 -7.127,1.564 -8.745,1.986 -1.619,0.424 -3.164,1.251 -4.635,2.483 -1.472,1.232 -2.207,2.951 -2.207,5.158 0,2.281 0.864,4.222 2.593,5.821 1.729,1.601 3.991,2.4 6.787,2.4 2.979,0 5.729,-0.652 8.249,-1.959 2.519,-1.305 4.367,-2.988 5.545,-5.048 1.36,-2.281 2.042,-6.033 2.042,-11.256 v -2.15 z" />
      <path class="blue" d="m 242.43086,495.34504 -13.297,-21.85 -8.166,7.725 v 11.973 c 0,2.906 -0.764,5.142 -2.29,6.704 -1.527,1.563 -3.283,2.345 -5.27,2.345 -2.317,0 -4.138,-0.771 -5.462,-2.316 -1.324,-1.545 -1.986,-3.826 -1.986,-6.842 v -64.225 c 0,-3.347 0.643,-5.895 1.931,-7.642 1.287,-1.747 3.126,-2.621 5.518,-2.621 2.317,0 4.156,0.792 5.518,2.373 1.36,1.582 2.042,3.917 2.042,7.007 v 36.526 l 16.939,-17.766 c 2.097,-2.207 3.697,-3.715 4.8,-4.525 1.104,-0.809 2.446,-1.214 4.028,-1.214 1.876,0 3.439,0.598 4.69,1.793 1.25,1.195 1.876,2.694 1.876,4.496 0,2.207 -2.042,5.15 -6.125,8.828 l -8,7.339 15.449,24.277 c 1.14,1.803 1.958,3.173 2.456,4.11 0.496,0.938 0.745,1.83 0.745,2.676 0,2.392 -0.653,4.276 -1.958,5.656 -1.306,1.379 -3.026,2.068 -5.159,2.068 -1.84,0 -3.255,-0.496 -4.249,-1.489 -0.994,-0.993 -2.339,-2.793 -4.03,-5.406 z" />
      <path class="blue" d="m 307.42786,475.31604 h -29.464 c 0.036,3.422 0.726,6.438 2.069,9.049 1.342,2.612 3.126,4.58 5.352,5.904 2.226,1.324 4.681,1.986 7.366,1.986 1.802,0 3.448,-0.211 4.938,-0.635 1.489,-0.422 2.933,-1.084 4.331,-1.986 1.397,-0.9 2.685,-1.866 3.862,-2.896 1.177,-1.029 2.704,-2.428 4.58,-4.193 0.772,-0.662 1.876,-0.993 3.311,-0.993 1.545,0 2.795,0.423 3.752,1.269 0.956,0.847 1.435,2.042 1.435,3.587 0,1.361 -0.534,2.952 -1.6,4.772 -1.067,1.821 -2.676,3.568 -4.828,5.242 -2.151,1.674 -4.855,3.063 -8.11,4.166 -3.256,1.104 -6.999,1.654 -11.229,1.654 -9.675,0 -17.197,-2.758 -22.567,-8.275 -5.371,-5.518 -8.056,-13.003 -8.056,-22.457 0,-4.45 0.662,-8.58 1.986,-12.387 1.324,-3.808 3.255,-7.071 5.793,-9.794 2.538,-2.722 5.664,-4.809 9.38,-6.263 3.715,-1.453 7.835,-2.179 12.359,-2.179 5.885,0 10.934,1.242 15.146,3.724 4.212,2.483 7.366,5.692 9.463,9.629 2.097,3.936 3.145,7.945 3.145,12.027 0,3.789 -1.085,6.245 -3.255,7.366 -2.171,1.124 -5.223,1.683 -9.159,1.683 z m -29.464,-8.552 h 27.312 c -0.368,-5.149 -1.757,-9.002 -4.166,-11.56 -2.41,-2.556 -5.583,-3.834 -9.518,-3.834 -3.752,0 -6.833,1.296 -9.242,3.89 -2.409,2.593 -3.871,6.428 -4.386,11.504 z" />
      <path class="blue" d="m 389.86086,442.32204 h 1.655 v -9.049 c 0,-2.428 0.063,-4.332 0.193,-5.71 0.128,-1.38 0.487,-2.566 1.075,-3.559 0.589,-1.029 1.436,-1.867 2.539,-2.51 1.103,-0.643 2.335,-0.966 3.696,-0.966 1.912,0 3.642,0.717 5.187,2.152 1.029,0.957 1.683,2.125 1.959,3.503 0.275,1.38 0.414,3.338 0.414,5.876 v 10.263 h 5.518 c 2.133,0 3.76,0.506 4.883,1.517 1.121,1.013 1.683,2.309 1.683,3.89 0,2.023 -0.8,3.44 -2.4,4.249 -1.6,0.81 -3.89,1.214 -6.869,1.214 h -2.813 v 27.698 c 0,2.354 0.082,4.166 0.248,5.435 0.165,1.27 0.606,2.3 1.324,3.09 0.717,0.792 1.885,1.187 3.504,1.187 0.883,0 2.077,-0.156 3.586,-0.469 1.508,-0.313 2.685,-0.47 3.531,-0.47 1.214,0 2.308,0.488 3.283,1.463 0.974,0.975 1.462,2.18 1.462,3.613 0,2.428 -1.324,4.286 -3.973,5.573 -2.649,1.287 -6.456,1.931 -11.421,1.931 -4.709,0 -8.277,-0.791 -10.705,-2.372 -2.428,-1.581 -4.019,-3.771 -4.772,-6.565 -0.754,-2.796 -1.131,-6.529 -1.131,-11.201 v -28.912 h -1.986 c -2.171,0 -3.826,-0.515 -4.966,-1.545 -1.141,-1.029 -1.711,-2.336 -1.711,-3.918 0,-1.581 0.598,-2.877 1.794,-3.89 1.193,-1.013 2.931,-1.518 5.213,-1.518 z" />
    </g>

    <g id="orngGrp">
      <path class="orng" d="m 474.38986,428.52804 v 58.873 h 33.215 c 2.648,0 4.681,0.644 6.098,1.932 1.415,1.287 2.124,2.905 2.124,4.855 0,1.986 -0.699,3.596 -2.097,4.827 -1.398,1.233 -3.439,1.849 -6.125,1.849 h -39.561 c -3.568,0 -6.134,-0.791 -7.697,-2.373 -1.563,-1.581 -2.345,-4.138 -2.345,-7.669 v -62.293 c 0,-3.311 0.745,-5.793 2.234,-7.449 1.49,-1.655 3.448,-2.483 5.876,-2.483 2.465,0 4.46,0.819 5.987,2.456 1.526,1.635 2.291,4.128 2.291,7.475 z" />
      <path class="orng" d="m 563.60886,493.74604 c -3.641,2.832 -7.164,4.957 -10.565,6.372 -3.403,1.416 -7.22,2.124 -11.449,2.124 -3.862,0 -7.256,-0.764 -10.18,-2.289 -2.925,-1.526 -5.178,-3.596 -6.759,-6.207 -1.582,-2.612 -2.373,-5.444 -2.373,-8.498 0,-4.119 1.306,-7.632 3.918,-10.538 2.611,-2.905 6.197,-4.855 10.759,-5.849 0.956,-0.221 3.329,-0.717 7.118,-1.49 3.788,-0.771 7.034,-1.479 9.738,-2.124 2.703,-0.643 5.637,-1.425 8.801,-2.345 -0.185,-3.973 -0.985,-6.888 -2.4,-8.745 -1.417,-1.857 -4.351,-2.786 -8.801,-2.786 -3.826,0 -6.704,0.533 -8.635,1.6 -1.932,1.067 -3.587,2.667 -4.966,4.801 -1.38,2.133 -2.354,3.54 -2.925,4.221 -0.571,0.681 -1.793,1.021 -3.669,1.021 -1.692,0 -3.154,-0.542 -4.387,-1.628 -1.232,-1.084 -1.849,-2.474 -1.849,-4.166 0,-2.648 0.938,-5.223 2.814,-7.725 1.876,-2.501 4.801,-4.561 8.773,-6.179 3.973,-1.618 8.919,-2.428 14.842,-2.428 6.621,0 11.826,0.782 15.615,2.345 3.788,1.563 6.464,4.037 8.027,7.421 1.563,3.385 2.346,7.872 2.346,13.463 0,3.531 -0.01,6.529 -0.028,8.993 -0.019,2.465 -0.046,5.206 -0.083,8.222 0,2.833 0.47,5.785 1.407,8.855 0.938,3.072 1.407,5.049 1.407,5.932 0,1.545 -0.727,2.952 -2.18,4.221 -1.453,1.27 -3.099,1.903 -4.938,1.903 -1.545,0 -3.072,-0.727 -4.58,-2.179 -1.506,-1.454 -3.106,-3.56 -4.798,-6.318 z m -0.992,-21.795 c -2.207,0.81 -5.417,1.665 -9.629,2.565 -4.212,0.902 -7.127,1.564 -8.745,1.986 -1.619,0.424 -3.164,1.251 -4.635,2.483 -1.472,1.232 -2.207,2.951 -2.207,5.158 0,2.281 0.864,4.222 2.593,5.821 1.729,1.601 3.991,2.4 6.787,2.4 2.979,0 5.729,-0.652 8.249,-1.959 2.519,-1.305 4.367,-2.988 5.545,-5.048 1.36,-2.281 2.042,-6.033 2.042,-11.256 z" />
      <path class="orng" d="m 605.10086,427.20304 v 23.008 c 2.833,-2.942 5.72,-5.195 8.663,-6.759 2.942,-1.563 6.584,-2.345 10.925,-2.345 5.002,0 9.389,1.186 13.159,3.559 3.771,2.372 6.694,5.813 8.773,10.317 2.077,4.507 3.117,9.85 3.117,16.029 0,4.561 -0.579,8.745 -1.738,12.552 -1.158,3.808 -2.841,7.109 -5.048,9.904 -2.207,2.796 -4.884,4.957 -8.028,6.483 -3.146,1.525 -6.612,2.289 -10.401,2.289 -2.316,0 -4.496,-0.275 -6.538,-0.827 -2.041,-0.552 -3.779,-1.277 -5.214,-2.18 -1.435,-0.9 -2.658,-1.829 -3.669,-2.786 -1.013,-0.956 -2.345,-2.391 -4.001,-4.304 v 1.489 c 0,2.833 -0.681,4.976 -2.041,6.429 -1.361,1.452 -3.09,2.179 -5.187,2.179 -2.134,0 -3.835,-0.727 -5.104,-2.179 -1.27,-1.453 -1.903,-3.596 -1.903,-6.429 v -65.769 c 0,-3.053 0.615,-5.361 1.848,-6.924 1.233,-1.563 2.952,-2.345 5.159,-2.345 2.317,0 4.102,0.745 5.353,2.235 1.25,1.491 1.875,3.616 1.875,6.374 z m 0.718,44.748 c 0,5.996 1.37,10.604 4.11,13.821 2.74,3.22 6.336,4.828 10.787,4.828 3.788,0 7.053,-1.646 9.794,-4.938 2.739,-3.291 4.11,-8.009 4.11,-14.152 0,-3.973 -0.57,-7.394 -1.711,-10.263 -1.14,-2.869 -2.758,-5.085 -4.855,-6.648 -2.096,-1.563 -4.543,-2.345 -7.338,-2.345 -2.869,0 -5.426,0.781 -7.67,2.345 -2.243,1.563 -4.009,3.826 -5.297,6.786 -1.287,2.961 -1.93,6.483 -1.93,10.566 z" />
      <path class="orng" d="m 710.32186,482.54504 c 0,4.157 -1.012,7.716 -3.035,10.677 -2.022,2.961 -5.012,5.205 -8.966,6.731 -3.954,1.525 -8.764,2.289 -14.429,2.289 -5.406,0 -10.041,-0.827 -13.904,-2.482 -3.861,-1.655 -6.713,-3.725 -8.552,-6.207 -1.84,-2.483 -2.759,-4.975 -2.759,-7.477 0,-1.655 0.588,-3.071 1.766,-4.248 1.177,-1.178 2.667,-1.766 4.469,-1.766 1.582,0 2.796,0.386 3.643,1.158 0.846,0.772 1.654,1.857 2.428,3.256 1.545,2.685 3.393,4.689 5.545,6.014 2.151,1.324 5.085,1.986 8.801,1.986 3.016,0 5.489,-0.671 7.421,-2.014 1.931,-1.343 2.896,-2.878 2.896,-4.607 0,-2.648 -1.003,-4.58 -3.007,-5.793 -2.006,-1.215 -5.307,-2.373 -9.904,-3.477 -5.187,-1.287 -9.407,-2.639 -12.663,-4.056 -3.255,-1.415 -5.857,-3.282 -7.808,-5.601 -1.949,-2.316 -2.924,-5.167 -2.924,-8.552 0,-3.016 0.901,-5.867 2.703,-8.552 1.803,-2.686 4.46,-4.828 7.974,-6.429 3.512,-1.6 7.752,-2.4 12.718,-2.4 3.898,0 7.402,0.405 10.511,1.214 3.108,0.81 5.701,1.895 7.78,3.255 2.077,1.361 3.659,2.869 4.745,4.524 1.084,1.655 1.628,3.274 1.628,4.855 0,1.729 -0.58,3.146 -1.738,4.249 -1.159,1.104 -2.806,1.654 -4.938,1.654 -1.545,0 -2.86,-0.441 -3.945,-1.324 -1.085,-0.883 -2.326,-2.207 -3.724,-3.973 -1.141,-1.471 -2.483,-2.648 -4.028,-3.531 -1.545,-0.883 -3.642,-1.324 -6.29,-1.324 -2.723,0 -4.984,0.58 -6.787,1.738 -1.802,1.159 -2.703,2.603 -2.703,4.332 0,1.581 0.662,2.878 1.986,3.89 1.324,1.012 3.108,1.849 5.352,2.511 2.244,0.662 5.334,1.471 9.27,2.428 4.672,1.14 8.488,2.501 11.449,4.082 2.961,1.582 5.205,3.449 6.731,5.601 1.524,2.155 2.288,4.61 2.288,7.369 z" />
    </g>

    <g id="bulbGrp" transform="translate(10.20086,-82.073963)">
      <path class="orng" id="bulb" d="m 329.085,559.977 c -0.55,0 -1.1,0 -2.089,0 0,-2.374 0,-4.65 0,-7.025 0.22,-9.202 -3.411,-17.316 -8.8,-24.936 -7.15,-10.391 -7.92,-21.176 -1.43,-31.962 5.06,-8.411 13.089,-13.26 23.98,-13.062 8.58,0.198 15.4,4.156 20.57,10.192 8.689,10.291 9.019,24.837 0.33,35.623 -4.4,5.542 -7.261,11.578 -9.13,18.01 -0.99,3.266 -0.621,6.88 -0.99,10.291 -0.11,0.989 -0.046,1.868 -0.164,2.886 -0.989,0 -2.586,-0.017 -3.577,-0.017 -6.159,0 -12.43,0 -18.7,0 z" />
      <path class="orng threading" d="m 328.344,565.565 c -1.742,0.342 -3.076,1.697 -2.976,2.976 0.101,1.277 1.561,2.006 3.257,1.655 7.037,-1.448 14.165,-2.464 21.332,-2.972 1.754,-0.126 3.275,-1.202 3.372,-2.43 0.097,-1.228 -1.301,-2.175 -3.1,-2.063 -7.348,0.456 -14.661,1.421 -21.885,2.834 z" />
      <path class="orng threading" d="m 328.846,573.812 c -1.661,0.357 -2.927,1.727 -2.826,3.004 0.101,1.277 1.494,1.993 3.109,1.627 7.97,-1.809 12.068,-2.471 20.344,-3.221 1.677,-0.151 3.134,-1.249 3.231,-2.477 0.097,-1.228 -1.239,-2.149 -2.959,-2.013 -8.492,0.68 -12.702,1.315 -20.899,3.08 z" />
      <path class="orng threading" d="m 330.964,581.524 c 1.522,2.737 4.637,4.618 8.242,4.618 4.735,0 8.631,-3.239 9.17,-7.412 z" />
    </g>
  </g>
</svg>
